<svg width="1024" height="1024" xmlns="http://www.w3.org/2000/svg" xmlns:undefined="http://vectornator.io" clip-rule="evenodd" xml:space="preserve" version="1.1" stroke-miterlimit="10">

 <g>
  <title>Layer 1</title>
  <g  id="Layer-4">
   <path id="svg_1" stroke-width="71" stroke-linejoin="round" stroke-linecap="round" stroke="#007aff" fill="none" d="m314.713,557.469c0,-47.387 -15.884,-75.071 12.43,-142.378c19.206,-45.657 57.729,-87.116 117.636,-87.116c118.203,0 246.075,55.418 246.075,151.502c0,96.084 -12.635,229.021 -130.838,229.021c-56.435,0 -106.79,3.716 -152.48,-19.831c-50.008,-25.772 -92.823,-80.989 -92.823,-131.198z"/>
   <path id="svg_2" stroke-width="71" stroke-linejoin="round" stroke="#007aff" fill="none" d="m643.169,671.867c148.092,137.818 148.092,137.818 148.092,137.818"/>
  </g>
  <g  id="Layer-3">
   <path id="svg_3" stroke-width="51" stroke-linejoin="round" stroke="#007aff" fill="none" d="m90.2045,272.441c523.2635,-101.822 753.6065,-94.923 753.5855,-54.681c-0.022,40.241 65.083,455.719 20.952,472.323c-44.132,16.603 -687.735,69.516 -694.652,60.084c-6.916,-9.431 -193.3623,-455.644 -79.8855,-477.726z"/>
   <path id="svg_4" stroke-width="51" stroke-linejoin="round" stroke="#007aff" fill="none" d="m233.756,401.424"/>
  </g>
 </g>
</svg>
